<svg width="514" height="540" viewBox="0 0 514 540" fill="none" xmlns="http://www.w3.org/2000/svg">
<g filter="url(#filter0_f_902_69)">
<path d="M208.268 550.952C190.737 529.141 176.022 495.942 165.75 455.023C155.479 414.104 150.051 367.061 150.066 319.093C150.082 271.126 155.54 224.103 165.838 183.224C176.136 142.345 190.872 109.201 208.417 87.4578C225.962 65.7146 245.633 56.2185 265.255 60.0195C284.877 63.8205 303.685 80.7705 319.6 108.996C335.515 137.221 347.918 175.621 355.436 219.952C362.955 264.282 365.296 312.816 362.201 360.187L301.067 336.471C302.367 316.575 301.383 296.191 298.226 277.572C295.068 258.953 289.859 242.825 283.175 230.971C276.49 219.116 268.591 211.997 260.35 210.401C252.108 208.804 243.847 212.793 236.478 221.925C229.109 231.057 222.92 244.977 218.594 262.147C214.269 279.316 211.977 299.065 211.97 319.212C211.964 339.358 214.244 359.116 218.558 376.302C222.872 393.488 229.052 407.432 236.415 416.592L208.268 550.952Z" fill="url(#paint0_linear_902_69)" fill-opacity="0.8"/>
</g>
<defs>
<filter id="filter0_f_902_69" x="0.0662842" y="-90.7984" width="513.462" height="791.75" filterUnits="userSpaceOnUse" color-interpolation-filters="sRGB">
<feFlood flood-opacity="0" result="BackgroundImageFix"/>
<feBlend mode="normal" in="SourceGraphic" in2="BackgroundImageFix" result="shape"/>
<feGaussianBlur stdDeviation="75" result="effect1_foregroundBlur_902_69"/>
</filter>
<linearGradient id="paint0_linear_902_69" x1="425.453" y1="761.298" x2="5.95011" y2="613.485" gradientUnits="userSpaceOnUse">
<stop stop-color="#CC0029"/>
<stop offset="1" stop-color="#FF33B8" stop-opacity="0"/>
</linearGradient>
</defs>
</svg>
